<?xml version="1.0" encoding="utf-8"?>
<!-- Generator: Adobe Illustrator 19.0.0, SVG Export Plug-In . SVG Version: 6.00 Build 0)  -->
<svg version="1.1" id="Layer_1" xmlns="http://www.w3.org/2000/svg" xmlns:xlink="http://www.w3.org/1999/xlink" x="0px" y="0px"
	 viewBox="0 0 96 96" style="enable-background:new 0 0 96 96;" xml:space="preserve">
<g id="XMLID_1_">
	<path id="XMLID_5_" d="M74.8,71.5L59.6,56.1c3-3.8,4.8-8.5,4.8-13.7c0-12.1-9.8-21.9-21.9-21.9s-21.9,9.8-21.9,21.9
		s9.8,21.9,21.9,21.9c5.2,0,10-1.8,13.8-4.9l15.2,15.3c0.5,0.5,1.1,0.7,1.7,0.7c0.6,0,1.2-0.2,1.6-0.6C75.7,74,75.7,72.5,74.8,71.5z
		 M42.4,59.6c-4.6,0-8.9-1.8-12.2-5s-5-7.6-5-12.2c0-4.6,1.8-8.9,5-12.2c3.3-3.3,7.6-5,12.2-5s8.9,1.8,12.2,5s5,7.6,5,12.2
		c0,4.6-1.8,8.9-5,12.2C51.4,57.8,47,59.6,42.4,59.6z"/>
</g>
</svg>
